<?xml version="1.0" standalone="no"?>
<!DOCTYPE svg PUBLIC "-//W3C//DTD SVG 20010904//EN"
 "http://www.w3.org/TR/2001/REC-SVG-20010904/DTD/svg10.dtd">
<svg version="1.0" xmlns="http://www.w3.org/2000/svg"
 width="644.000000pt" height="143.000000pt" viewBox="0 0 644.000000 143.000000"
 preserveAspectRatio="xMidYMid meet">

<g transform="translate(0.000000,143.000000) scale(0.100000,-0.100000)"
fill="#ffffff" stroke="none">
<path d="M530 1084 c-267 -190 -491 -352 -499 -359 -13 -13 83 -83 925 -681
l61 -44 494 353 c272 193 497 355 499 359 4 5 -864 631 -975 704 -18 12 -63
-18 -505 -332z m895 -70 c220 -157 404 -289 408 -293 6 -6 -701 -520 -799
-581 -19 -12 -53 10 -426 276 -222 159 -406 292 -409 296 -4 7 800 587 816
587 6 0 190 -128 410 -285z"/>
<path d="M605 970 c-187 -133 -343 -245 -348 -249 -4 -4 149 -119 340 -255
l348 -249 3 49 c4 60 24 84 69 84 46 0 73 -29 73 -81 0 -30 4 -40 13 -36 7 3
163 112 346 242 270 193 330 240 319 250 -21 20 -650 466 -665 472 -9 4 -13
-5 -13 -31 0 -26 -7 -44 -25 -61 -29 -30 -54 -31 -88 -5 -20 16 -27 31 -29 67
l-3 46 -340 -243z m599 -14 c99 -23 186 -68 234 -120 71 -77 66 -152 -14 -226
-204 -188 -714 -164 -851 39 -29 43 -31 113 -4 157 41 67 168 135 296 158 98
17 246 14 339 -8z"/>
<path d="M700 710 l0 -120 35 0 35 0 0 50 c0 43 3 50 20 50 17 0 20 -7 20 -50
l0 -50 35 0 35 0 0 120 0 120 -35 0 c-34 0 -35 -1 -35 -40 0 -33 -3 -40 -20
-40 -17 0 -20 7 -20 40 0 39 -1 40 -35 40 l-35 0 0 -120z"/>
<path d="M930 710 l0 -120 35 0 35 0 1 53 0 52 21 -52 c19 -49 23 -53 53 -53
17 0 34 3 38 6 3 4 -7 33 -23 65 -17 32 -30 63 -30 69 0 6 11 28 25 50 14 22
25 42 25 45 0 3 -15 5 -33 5 -29 0 -36 -5 -54 -42 l-22 -43 0 43 c-1 41 -2 42
-36 42 l-35 0 0 -120z"/>
<path d="M1144 793 c3 -21 6 -75 6 -120 0 -81 0 -83 25 -83 23 0 24 4 27 61
l3 61 35 -61 c32 -56 38 -61 65 -59 l30 3 3 118 3 117 -30 0 c-29 0 -30 -2
-33 -52 l-3 -53 -32 53 c-30 47 -36 52 -69 52 l-37 0 7 -37z"/>
<path d="M2351 892 c-39 -3 -42 -5 -37 -25 3 -12 6 -88 6 -168 l0 -147 41 2
42 1 1 168 c1 93 -1 170 -4 171 -3 0 -25 0 -49 -2z"/>
<path d="M2555 893 l-80 -4 1 -167 2 -167 103 0 104 0 3 33 3 32 -65 0 -66 0
0 40 0 40 60 0 60 0 0 30 0 30 -60 0 -60 0 0 35 0 35 66 0 65 0 -3 33 c-3 36
0 36 -133 30z"/>
<path d="M2822 893 l-82 -4 2 -167 3 -167 105 0 105 0 3 33 3 32 -65 0 -66 0
0 40 0 40 55 0 c41 0 55 4 55 14 0 8 3 21 6 30 5 14 -3 16 -55 16 l-61 0 0 35
0 35 59 0 c56 0 59 1 64 27 7 35 1 44 -26 41 -12 -1 -59 -4 -105 -5z"/>
<path d="M3087 893 l-77 -4 2 -167 3 -167 105 0 105 0 3 33 3 32 -65 0 -66 0
0 40 0 40 55 0 c54 0 55 0 55 30 0 30 -1 30 -55 30 l-55 0 0 35 0 35 61 0 60
0 -3 33 c-3 36 -1 36 -131 30z"/>
<path d="M3532 893 l-82 -4 2 -167 3 -167 105 0 105 0 3 33 3 32 -65 0 -66 0
0 40 0 40 55 0 c41 0 55 4 55 14 0 8 3 21 6 30 5 14 -3 16 -55 16 l-61 0 0 35
0 35 59 0 c56 0 59 1 64 27 7 35 1 44 -26 41 -12 -1 -59 -4 -105 -5z"/>
<path d="M4327 892 l-37 -3 2 -167 3 -167 40 0 40 0 5 80 5 80 48 -82 48 -81
44 0 c25 0 47 3 49 7 3 4 -11 30 -30 57 -20 27 -47 68 -60 91 l-25 42 40 55
c22 30 45 57 51 61 5 3 10 12 10 18 0 8 -15 11 -46 9 -44 -4 -46 -6 -87 -71
l-42 -66 -3 65 c-2 36 -6 67 -10 70 -4 3 -24 4 -45 2z"/>
<path d="M5879 892 l-35 -3 3 -167 4 -167 36 -3 36 -3 -5 111 c-2 60 -4 110
-3 110 1 0 35 -49 76 -110 68 -101 76 -109 107 -110 l32 0 0 173 0 173 -35 -4
-35 -4 0 -97 0 -96 -65 97 c-35 53 -68 98 -72 100 -4 2 -24 2 -44 0z"/>
<path d="M3748 878 c-22 -7 -28 -16 -28 -39 0 -19 -5 -29 -15 -29 -10 0 -15
-10 -15 -30 0 -20 5 -30 15 -30 12 0 15 -16 15 -80 0 -99 17 -123 82 -118 36
3 43 7 49 30 6 24 4 27 -20 30 -25 3 -26 6 -29 71 -3 66 -3 67 23 67 21 0 25
5 25 30 0 25 -4 30 -25 30 -22 0 -25 4 -25 40 0 43 -5 46 -52 28z"/>
<path d="M3965 814 c-11 -3 -30 -7 -42 -10 -18 -3 -23 -11 -23 -35 0 -23 4
-30 14 -26 41 16 83 18 94 4 10 -11 3 -16 -40 -26 -66 -15 -98 -44 -98 -88 0
-64 72 -104 131 -73 11 6 19 7 19 1 0 -5 17 -8 38 -8 l37 2 3 102 c2 93 1 103
-20 127 -23 25 -74 39 -113 30z m55 -163 c0 -32 -23 -47 -54 -35 -23 9 -16 36
14 51 36 18 40 16 40 -16z"/>
<path d="M4675 813 c-11 -2 -30 -6 -42 -9 -18 -3 -23 -11 -23 -35 0 -23 4
-30 14 -26 41 16 83 18 94 4 10 -11 3 -16 -43 -26 -62 -14 -95 -46 -95 -93 0
-59 75 -98 131 -68 10 6 19 7 19 2 0 -5 18 -9 40 -10 l40 -2 0 108 c0 120 -8
137 -61 152 -35 10 -40 11 -74 3z m55 -162 c0 -36 -33 -52 -57 -28 -18 17
-10 35 21 47 33 14 36 12 36 -19z"/>
<path d="M4925 814 c-5 -1 -22 -5 -37 -8 l-28 -6 0 -180 0 -180 45 0 45 0 0
54 0 54 40 7 c54 9 97 47 110 97 27 99 -37 182 -122 158 -17 -6 -34 -6 -37 -1
-4 4 -10 7 -16 5z m85 -83 c26 -49 -2 -125 -43 -119 -19 3 -22 10 -25 57 -2
29 -1 60 2 67 8 21 54 17 66 -5z"/>
<path d="M5182 807 c-33 -6 -42 -12 -38 -24 3 -8 6 -89 6 -179 l0 -164 43 0
44 0 -5 54 -4 53 42 7 c82 13 120 59 120 144 0 81 -54 131 -121 112 -18 -6
-35 -6 -38 -2 -4 5 -25 4 -49 -1z m118 -87 c0 -36 -33 -52 -57 -28 -18 17
-10 35 21 47 33 14 36 12 36 -19z"/>
<path d="M5493 808 c-39 -8 -43 -12 -43 -40 0 -22 4 -29 14 -25 42 16 83 18
94 4 11 -12 6 -16 -25 -22 -83 -15 -119 -52 -109 -111 11 -55 74 -82 127 -54
13 7 19 7 19 0 0 -5 18 -10 40 -10 l40 0 0 106 c0 58 -5 114 -10 124 -6 11
-27 24 -48 30 -42 11 -42 11 -99 -2z m77 -157 c0 -36 -33 -52 -57 -28 -18 17
-10 35 21 47 33 14 36 12 36 -19z"/>
<path d="M6190 705 c0 -99 2 -107 25 -130 26 -26 57 -31 99 -15 17 6 26 6 26
0 0 -6 18 -10 40 -10 l40 0 0 130 0 130 -40 0 -40 0 0 -89 c0 -69 -4 -92 -16
-102 -11 -9 -20 -10 -32 -2 -14 8 -18 29 -20 102 l-3 91 -39 0 -40 0 0 -105z"/>
<path d="M3260 690 l0 -30 69 0 c54 0 70 4 75 16 15 40 9 44 -69 44 l-75 0 0
-30z"/>
</g>
</svg>
