<?xml version="1.0"?>
<svg version="1.1" xmlns="http://www.w3.org/2000/svg" width="400px" height="200px" style="border: dashed 2px #aaa"><path fill="#6dc732" d="M35.2041015625,87.498046875q0-1.6982421875,0.41552734375-2.47509765625t1.1923828125-1.083984375t1.87890625-0.23486328125t2.58349609375,0.072265625q3.7578125,0,7.587890625,1.15625t6.9013671875,3.37841796875t4.9501953125,5.47412109375t1.87890625,7.4794921875q0,2.818359375-0.81298828125,5.32958984375t-2.29443359375,4.697265625t-3.46875,3.99267578125t-4.3720703125,3.1435546875q0.9755859375,0.9755859375,2.529296875,3.45068359375t3.0712890625,5.275390625t2.69189453125,5.43798828125t1.39111328125,3.974609375l-0.43359375,0.650390625q-0.9755859375,0.578125-2.3486328125,0.6142578125q-0.650390625,0-1.6982421875-0.16259765625t-1.3369140625-0.95751953125q-1.4814453125-4.1552734375-3.23388671875-8.5634765625t-4.31787109375-7.94921875l0-0.072265625q-0.9033203125,0.361328125-1.78857421875,0.70458984375t-1.78857421875,0.63232421875q0.2890625,4.0107421875,0.59619140625,7.89501953125t0.30712890625,7.85888671875q0,0.505859375-0.48779296875,0.81298828125t-1.10205078125,0.48779296875t-1.24658203125,0.2529296875t-1.02978515625,0.072265625q-0.361328125,0-1.02978515625-0.072265625t-1.28271484375-0.2529296875t-1.06591796875-0.52392578125t-0.45166015625-0.92138671875q0-4.0107421875-0.1806640625-8.00341796875t-0.3974609375-7.96728515625q-1.1201171875-0.72265625-1.1201171875-1.87890625q0-0.9033203125,0.8671875-1.228515625q-0.43359375-7.6240234375-0.99365234375-15.2119140625t-0.56005859375-15.2841796875z M41.744140625,86.3779296875q0.505859375,7.8408203125,1.13818359375,15.5009765625t1.21044921875,15.5009765625q2.529296875-0.72265625,4.71533203125-2.51123046875t3.77587890625-4.02880859375t2.47509765625-4.8779296875t0.88525390625-5.2392578125q0-2.890625-1.15625-5.54638671875t-3.0712890625-4.64306640625q-1.951171875-1.9873046875-4.48046875-3.107421875q-2.240234375-0.9755859375-4.697265625-0.9755859375l-0.650390625,0z M70.024208984375,104.1552734375l0-2.7822265625l0-2.8544921875q0.0361328125-2.890625,0.23486328125-5.54638671875t0.56005859375-4.42626953125q0.216796875-0.9755859375,1.30078125-1.1923828125t1.87890625-0.216796875q1.4814453125,0,2.18603515625,0.361328125t0.92138671875,1.02978515625t0.1806640625,1.58984375t-0.0361328125,2.11376953125q0,1.6982421875-0.072265625,4.7333984375t-0.1083984375,6.720703125l0,1.8427734375q0,2.7822265625,0.072265625,5.7451171875q0.1083984375,3.974609375,0.41552734375,7.60595703125t0.84912109375,6.5400390625t1.517578125,4.46240234375q1.5537109375-1.4091796875,3.107421875-3.95654296875t2.962890625-5.72705078125t2.69189453125-6.70263671875t2.33056640625-6.88330078125t1.78857421875-6.3232421875t1.10205078125-5.0224609375q0.578125-2.962890625,0.77685546875-6.0341796875t0.19873046875-6.8291015625q1.1201171875-1.3369140625,1.734375-1.68017578125t1.951171875-0.34326171875q0.650390625,0,1.31884765625,0.1083984375t1.28271484375,0.505859375l0.505859375,0.794921875l0,0.9033203125q0,6.576171875-0.63232421875,13.35107421875t-1.3369140625,13.6220703125t-1.3369140625,13.73046875t-0.63232421875,13.67626953125q0,1.0478515625,0.09033203125,2.22216796875t0.37939453125,2.22216796875l-0.14453125,0.43359375q-0.505859375,0.8310546875-1.662109375,1.0478515625t-1.9873046875,0.216796875q-1.7705078125,0-2.65576171875-0.52392578125t-1.17431640625-1.4453125t-0.2529296875-2.1318359375t0.0361328125-2.61962890625q0-4.8779296875,0.43359375-9.91845703125t1.0478515625-9.91845703125q-0.578125,1.6982421875-1.373046875,4.10107421875t-1.86083984375,4.8056640625t-2.47509765625,4.408203125t-3.107421875,2.87255859375l0.072265625-0.072265625l-0.2890625,0.14453125l0.072265625,0q-1.0478515625,0.578125-1.93310546875,0.77685546875t-2.07763671875,0.19873046875q-2.384765625,0-3.95654296875-1.4091796875t-2.54736328125-3.63134765625t-1.4453125-4.986328125t-0.66845703125-5.54638671875t-0.19873046875-5.29345703125l0-4.13720703125q0-1.9873046875-0.0361328125-4.7333984375z M82.887490234375,132.9169921875q0.072265625,0,0.072265625-0.072265625l0.072265625,0q-0.072265625,0.072265625-0.14453125,0.072265625z M123.15172851562,136.494140625q0.14453125-7.5517578125,0.63232421875-15.0673828125t0.84912109375-15.0673828125q0.072265625-2.890625,0.072265625-5.25732421875t0.23486328125-4.10107421875t0.8671875-2.65576171875t2.11376953125-0.92138671875q1.2646484375,0,1.9150390625,0.361328125t0.99365234375,0.92138671875t0.41552734375,1.2646484375t0.072265625,1.42724609375q0,1.0478515625,0.072265625,2.07763671875t0.072265625,2.07763671875q0,7.6240234375-0.41552734375,15.2119140625t-0.41552734375,15.2841796875q0,1.1201171875,0.0361328125,2.25830078125t0.0361328125,2.33056640625q0,0.43359375-0.3974609375,0.72265625t-0.99365234375,0.48779296875t-1.2646484375,0.27099609375t-1.10205078125,0.072265625q-0.505859375,0-1.13818359375-0.072265625t-1.228515625-0.30712890625t-1.01171875-0.56005859375t-0.41552734375-0.7587890625z M125.17516601562,87.498046875q0-0.361328125,0.1083984375-0.81298828125t0.2529296875-0.81298828125q0.072265625-0.43359375,0.216796875-1.4814453125t0.52392578125-2.04150390625t1.0478515625-1.7705078125t1.89697265625-0.77685546875l0.6865234375,0q0.578125,0.14453125,1.17431640625,0.361328125t0.59619140625,1.0478515625q0,0.361328125-0.0361328125,0.6865234375t-0.1083984375,0.72265625q-0.2890625,2.1318359375-0.56005859375,3.3603515625t-0.63232421875,1.86083984375t-0.92138671875,0.81298828125t-1.42724609375,0.2529296875q-0.2890625,0-0.77685546875-0.0361328125t-0.939453125-0.1806640625t-0.77685546875-0.45166015625t-0.3251953125-0.74072265625z M139.074375,133.09765625q0.072265625-1.517578125,0.072265625-2.962890625q0-5.2392578125,0.37939453125-10.4423828125t0.52392578125-10.4423828125q0.216796875-5.998046875,0.3974609375-11.8876953125t0.72265625-11.8515625q0.14453125-1.4814453125,0.84912109375-1.93310546875t2.11376953125-0.45166015625q0.650390625,0,1.734375,0.2529296875t1.083984375,1.228515625q0.505859375,0.072265625,1.01171875,0.072265625q0.7587890625,0,1.5537109375-0.14453125q1.30078125-0.216796875,2.65576171875-0.48779296875t2.69189453125-0.52392578125t2.5654296875-0.2529296875q0.2890625,0,0.81298828125,0.0361328125t1.0478515625,0.216796875t0.88525390625,0.45166015625t0.361328125,0.70458984375t-0.84912109375,0.77685546875t-2.22216796875,0.59619140625t-2.962890625,0.43359375t-3.107421875,0.30712890625t-2.69189453125,0.19873046875t-1.68017578125,0.072265625l-0.072265625,13.5859375l0.072265625,6.7568359375q1.1201171875,0,3.3603515625-0.072265625q0.9033203125-0.0361328125,1.806640625-0.0361328125q1.373046875,0,2.818359375,0.072265625q2.384765625,0.1083984375,4.2998046875,0.43359375t2.4208984375,1.15625q0,0.505859375-0.52392578125,0.81298828125t-1.17431640625,0.45166015625t-1.31884765625,0.1806640625t-0.95751953125,0.0361328125q-2.673828125,0-5.3837890625-0.1083984375t-5.34765625-0.43359375q0,4.4443359375-0.23486328125,8.81640625t-0.23486328125,8.81640625q0,1.9150390625,0.0361328125,3.77587890625t0.43359375,3.70361328125q0.9755859375-0.072265625,2.11376953125-0.1806640625t2.3125-0.27099609375t2.25830078125-0.27099609375t1.87890625-0.1083984375q0.43359375,0,1.17431640625,0.1083984375t1.517578125,0.361328125t1.3369140625,0.63232421875t0.56005859375,0.88525390625q0,0.578125-1.06591796875,1.02978515625t-2.72802734375,0.72265625t-3.63134765625,0.37939453125t-3.81201171875,0.14453125t-3.32421875,0.0361328125l-2.095703125,0q-1.9873046875,0-2.90869140625-0.74072265625t-1.28271484375-1.93310546875q-0.2890625-0.9755859375-0.2529296875-2.2041015625l0-0.505859375z M169.12495117188,133.09765625q0.072265625-1.517578125,0.072265625-2.962890625q0-5.2392578125,0.37939453125-10.4423828125t0.52392578125-10.4423828125q0.216796875-5.998046875,0.3974609375-11.8876953125t0.72265625-11.8515625q0.14453125-1.4814453125,0.84912109375-1.93310546875t2.11376953125-0.45166015625q0.650390625,0,1.734375,0.2529296875t1.083984375,1.228515625q0.505859375,0.072265625,1.01171875,0.072265625q0.7587890625,0,1.5537109375-0.14453125q1.30078125-0.216796875,2.65576171875-0.48779296875t2.69189453125-0.52392578125t2.5654296875-0.2529296875q0.2890625,0,0.81298828125,0.0361328125t1.0478515625,0.216796875t0.88525390625,0.45166015625t0.361328125,0.70458984375t-0.84912109375,0.77685546875t-2.22216796875,0.59619140625t-2.962890625,0.43359375t-3.107421875,0.30712890625t-2.69189453125,0.19873046875t-1.68017578125,0.072265625l-0.072265625,13.5859375l0.072265625,6.7568359375q1.1201171875,0,3.3603515625-0.072265625q0.9033203125-0.0361328125,1.806640625-0.0361328125q1.373046875,0,2.818359375,0.072265625q2.384765625,0.1083984375,4.2998046875,0.43359375t2.4208984375,1.15625q0,0.505859375-0.52392578125,0.81298828125t-1.17431640625,0.45166015625t-1.31884765625,0.1806640625t-0.95751953125,0.0361328125q-2.673828125,0-5.3837890625-0.1083984375t-5.34765625-0.43359375q0,4.4443359375-0.23486328125,8.81640625t-0.23486328125,8.81640625q0,1.9150390625,0.0361328125,3.77587890625t0.43359375,3.70361328125q0.9755859375-0.072265625,2.11376953125-0.1806640625t2.3125-0.27099609375t2.25830078125-0.27099609375t1.87890625-0.1083984375q0.43359375,0,1.17431640625,0.1083984375t1.517578125,0.361328125t1.3369140625,0.63232421875t0.56005859375,0.88525390625q0,0.578125-1.06591796875,1.02978515625t-2.72802734375,0.72265625t-3.63134765625,0.37939453125t-3.81201171875,0.14453125t-3.32421875,0.0361328125l-2.095703125,0q-1.9873046875,0-2.90869140625-0.74072265625t-1.28271484375-1.93310546875q-0.2890625-0.9755859375-0.2529296875-2.2041015625l0-0.505859375z M199.17552734375,133.09765625q0.072265625-1.517578125,0.072265625-2.962890625q0-5.2392578125,0.37939453125-10.4423828125t0.52392578125-10.4423828125q0.216796875-5.998046875,0.3974609375-11.8876953125t0.72265625-11.8515625q0.14453125-1.4814453125,0.84912109375-1.93310546875t2.11376953125-0.45166015625q0.650390625,0,1.734375,0.2529296875t1.083984375,1.228515625q0.505859375,0.072265625,1.01171875,0.072265625q0.7587890625,0,1.5537109375-0.14453125q1.30078125-0.216796875,2.65576171875-0.48779296875t2.69189453125-0.52392578125t2.5654296875-0.2529296875q0.2890625,0,0.81298828125,0.0361328125t1.0478515625,0.216796875t0.88525390625,0.45166015625t0.361328125,0.70458984375t-0.84912109375,0.77685546875t-2.22216796875,0.59619140625t-2.962890625,0.43359375t-3.107421875,0.30712890625t-2.69189453125,0.19873046875t-1.68017578125,0.072265625l-0.072265625,13.5859375l0.072265625,6.7568359375q1.1201171875,0,3.3603515625-0.072265625q0.9033203125-0.0361328125,1.806640625-0.0361328125q1.373046875,0,2.818359375,0.072265625q2.384765625,0.1083984375,4.2998046875,0.43359375t2.4208984375,1.15625q0,0.505859375-0.52392578125,0.81298828125t-1.17431640625,0.45166015625t-1.31884765625,0.1806640625t-0.95751953125,0.0361328125q-2.673828125,0-5.3837890625-0.1083984375t-5.34765625-0.43359375q0,4.4443359375-0.23486328125,8.81640625t-0.23486328125,8.81640625q0,1.9150390625,0.0361328125,3.77587890625t0.43359375,3.70361328125q0.9755859375-0.072265625,2.11376953125-0.1806640625t2.3125-0.27099609375t2.25830078125-0.27099609375t1.87890625-0.1083984375q0.43359375,0,1.17431640625,0.1083984375t1.517578125,0.361328125t1.3369140625,0.63232421875t0.56005859375,0.88525390625q0,0.578125-1.06591796875,1.02978515625t-2.72802734375,0.72265625t-3.63134765625,0.37939453125t-3.81201171875,0.14453125t-3.32421875,0.0361328125l-2.095703125,0q-1.9873046875,0-2.90869140625-0.74072265625t-1.28271484375-1.93310546875q-0.2890625-0.9755859375-0.2529296875-2.2041015625l0-0.505859375z M243.1614453125,93.55029296875q-0.072265625-0.95751953125,0.16259765625-1.806640625t0.88525390625-1.4091796875t2.2041015625-0.56005859375q0.361328125,0,0.88525390625,0.072265625t1.0478515625,0.23486328125t0.84912109375,0.45166015625t0.3251953125,0.794921875q0,1.3369140625,0.09033203125,3.52294921875t0.23486328125,4.552734375t0.27099609375,4.625t0.23486328125,3.66748046875q2.818359375-0.14453125,5.6728515625-0.14453125t5.63671875-0.14453125l4.986328125-0.14453125l0-3.5771484375q0-5.998046875-0.23486328125-12.01416015625t-0.81298828125-12.01416015625q0-0.43359375,0.361328125-0.70458984375t0.84912109375-0.41552734375t1.01171875-0.1806640625t0.81298828125-0.0361328125q0.8310546875,0,1.78857421875,0.2529296875t1.10205078125,1.083984375l0.216796875,1.5537109375q0.9033203125,6.50390625,1.228515625,12.86328125t0.4697265625,12.71875q0.43359375,0.072265625,0.92138671875,0.23486328125t0.99365234375,0.30712890625q0.361328125,0.14453125,1.02978515625,0.43359375t0.66845703125,0.9033203125q0,0.578125-0.505859375,0.9033203125t-1.13818359375,0.48779296875t-1.228515625,0.19873046875t-0.74072265625,0.0361328125q0.072265625,2.673828125,0.072265625,5.32958984375l0,5.32958984375l0,11.6708984375l0,6.50390625q0,0.43359375-0.41552734375,0.77685546875t-0.99365234375,0.56005859375t-1.21044921875,0.2890625t-1.13818359375,0.072265625t-1.1923828125-0.072265625t-1.228515625-0.2890625t-0.95751953125-0.5419921875t-0.41552734375-0.794921875l0-1.5537109375q0.14453125-6.865234375,0.3251953125-13.60400390625t0.361328125-13.53173828125q-3.9384765625,0.14453125-8.00341796875,0.1806640625t-8.07568359375,0.1806640625q0.43359375,5.0947265625,0.99365234375,10.17138671875t1.17431640625,10.17138671875q0,0.43359375-0.41552734375,0.77685546875t-0.9755859375,0.56005859375t-1.1923828125,0.2890625t-1.13818359375,0.072265625q-1.0478515625,0-2.29443359375-0.361328125t-1.39111328125-1.3369140625q-0.43359375-3.830078125-0.81298828125-8.455078125t-0.66845703125-9.44873046875t-0.45166015625-9.44873046875t-0.16259765625-8.3828125q0-0.9033203125-0.072265625-1.86083984375z M284.44932617188,114.2724609375q0-6.21484375,0.34326171875-12.28515625t0.84912109375-12.28515625q0.14453125-1.6259765625,0.1806640625-3.1435546875t0.34326171875-2.65576171875t1.083984375-1.806640625t2.40283203125-0.66845703125q1.0478515625,0,2.18603515625,0.361328125t1.13818359375,1.6982421875q0,5.0224609375-0.41552734375,9.88232421875t-0.56005859375,9.66552734375q3.9384765625-4.4443359375,8.4189453125-8.29248046875t9.5029296875-7.60595703125q0.72265625-0.505859375,1.8427734375-0.5419921875q0.361328125,0,0.63232421875,0.0361328125t0.56005859375,0.1083984375q0.361328125,0.14453125,0.74072265625,0.34326171875t0.37939453125,0.56005859375q0,0.2890625-0.3251953125,0.505859375q-3.7578125,3.03515625-7.42529296875,6.1787109375t-6.99169921875,6.720703125q0.43359375,0.8310546875,0.74072265625,1.5537109375t0.66845703125,1.5537109375q3.03515625,7.1904296875,5.18505859375,14.72412109375t4.57080078125,14.94091796875q0.216796875,0.8310546875,0.63232421875,1.71630859375t0.77685546875,1.7705078125t0.63232421875,1.662109375t0.27099609375,1.28271484375q0,0.650390625-0.41552734375,1.02978515625t-0.95751953125,0.59619140625t-1.17431640625,0.2890625t-1.17431640625,0.072265625q-1.2646484375,0-2.25830078125-0.361328125t-1.57177734375-1.6259765625q-2.673828125-8.52734375-5.14892578125-17.0546875t-5.00439453125-17.19921875q-0.8310546875,0.8310546875-1.662109375,2.07763671875t-1.517578125,2.29443359375q0,5.419921875,0.2529296875,10.767578125t0.8671875,10.767578125q0.14453125,1.5537109375,0.48779296875,3.107421875t0.34326171875,3.1796875q0,1.1923828125-1.228515625,1.662109375t-2.7099609375,0.4697265625q-1.6259765625,0-2.43896484375-0.3251953125t-1.15625-0.84912109375t-0.41552734375-1.15625t-0.216796875-1.21044921875q-0.8310546875-5.708984375-1.0478515625-11.29150390625t-0.216796875-11.21923828125z M321.47353515625,89.7021484375q0-0.43359375,0.41552734375-0.650390625t0.9033203125-0.3251953125t0.88525390625-0.1083984375l0.3974609375,0q1.2646484375,0,1.82470703125,0.578125t1.35498046875,1.4814453125q5.419921875,7.8408203125,9.9365234375,16.13330078125t8.7080078125,16.78369140625q0.361328125-9.900390625,0.74072265625-19.92724609375t0.95751953125-19.89111328125q0-0.43359375,0.41552734375-0.72265625t0.939453125-0.43359375t1.06591796875-0.1806640625t0.8310546875-0.0361328125q0.43359375,0,0.95751953125,0.0361328125t1.0478515625,0.216796875t0.8671875,0.43359375t0.34326171875,0.6865234375q0.14453125,1.5537109375,0.16259765625,3.12548828125t0.01806640625,3.12548828125q0,11.634765625-0.505859375,22.7998046875t-0.505859375,22.546875l0,2.6015625q0,0.14453125-0.14453125,0.43359375q0.072265625,0.2890625,0.216796875,0.63232421875t0.14453125,0.48779296875q0,0.578125-0.59619140625,0.8671875t-1.30078125,0.45166015625t-1.24658203125,0.16259765625t-0.3974609375,0q-1.8427734375,0-3.107421875-1.01171875t-1.2646484375-2.4208984375q-2.673828125-5.998046875-5.32958984375-11.90576171875t-5.54638671875-11.76123046875q-1.8427734375-3.685546875-3.70361328125-7.38916015625t-3.99267578125-7.17236328125q0.072265625,0.072265625,0.072265625,0.216796875q0.361328125,3.61328125,0.77685546875,7.20849609375t0.63232421875,7.20849609375q0.14453125,3.107421875,0.3251953125,6.287109375t0.578125,6.287109375q0,1.1923828125-0.74072265625,1.517578125t-1.71630859375,0.3251953125q-0.8310546875,0-1.57177734375-0.216796875t-0.88525390625-1.083984375q0-3.32421875-0.2529296875-7.06396484375t-0.4697265625-7.53369140625q-0.361328125-5.0224609375-0.95751953125-10.20751953125t-0.59619140625-10.13525390625q0-0.216796875,0.0361328125-0.45166015625t0.0361328125-0.52392578125q-0.216796875-0.361328125-0.48779296875-0.7587890625t-0.27099609375-0.72265625z"/><path fill="#" d=""/></svg>
